# xmcd CD database file
# Generated: Thu Aug 8 22:01:03 2002 by KSCD
# 
# Track frame offsets:
#       150
#       24062
#       41712
#       59860
#       75332
#       100732
#       116932
#       130155
#       145772
#       163132
#       180495
#       196665
#       215270
#       232162
#       258670
#
# Disc length: 3833 seconds
#
# Revision: 1
# Processed by: cddbd v1.4PL0 Copyright (c) Steve Scherf et al.
# Submitted via: Kscd 1.3.3
#
DISCID=d00ef70f
DTITLE=Various Artist - Voice of Folk
DYEAR=1900
DGENRE=
TTITLE0=Whe I First Came to Caledonia (Norma Waterson)
TTITLE1=Old Horse (Martin Carthy)
TTITLE2=Grey Cock (Eliza Carthy)
TTITLE3=Bonnie Lass Amang the Heather (Dick Gaughan)
TTITLE4=Little Pot Stove (Nic Jones)
TTITLE5=Somewhere Along the Road (Maddy Prior)
TTITLE6=Foor Loom Weaver (Ewan MacColl)
TTITLE7=Old Man Jones (John Kirkpatrick)
TTITLE8=King of Rome (June Tabor)
TTITLE9=Shipyard Apprentice, The (Battlefield Band)
TTITLE10=False True Lover (Shirley Collins)
TTITLE11=JOH (Four Men and a Dog)
TTITLE12=Time To Ring Some Changes (Richard Thompson)
TTITLE13=Striking For Another Land (Albion Band)
TTITLE14=Doctor Fausters Tumblers, Night of Trafalgar, (Brass Monkey)
EXTD=
EXTT0=
EXTT1=
EXTT2=
EXTT3=
EXTT4=
EXTT5=
EXTT6=
EXTT7=
EXTT8=
EXTT9=
EXTT10=
EXTT11=
EXTT12=
EXTT13=
EXTT14=
PLAYORDER=
